# xmcd
#
# Track frame offsets:
#	150
#	25485
#	57417
#	84320
#	101737
#	128612
#	149185
#	170247
#	189567
#	214595
#	229432
#	251855
#	273030
#
# Disc length: 3894 seconds
#
# Revision: 1
# Processed by: cddbd v1.5.1PL0 Copyright (c) Steve Scherf et al.
# Submitted via: CDex 1.50Beta5
#
DISCID=c70f340d
DTITLE=今井美樹 - FOR LIFE 1975〜1995 Disc 1
DYEAR=1995
DGENRE=
TTITLE0=今井美樹/PIECE OF MY WISH
TTITLE1=今井美樹/Love Of My Life
TTITLE2=江口洋介/愛は愛で
TTITLE3=江口洋介/It’s Fine Today
TTITLE4=佐藤聖子/恋をするなら
TTITLE5=ZOO/Choo Choo TRAIN
TTITLE6=ZOO/Adam
TTITLE7=テイ・トウワ/Technova
TTITLE8=ディック・リー/Good Earth,The
TTITLE9=小室等/雨が空から降れば
TTITLE10=憂歌団/胸が痛い
TTITLE11=吉田拓郎/君のスピードで
TTITLE12=吉田拓郎/明日に向かって走れ
EXTD=
EXTT0=
EXTT1=
EXTT2=
EXTT3=
EXTT4=
EXTT5=
EXTT6=
EXTT7=
EXTT8=
EXTT9=
EXTT10=
EXTT11=
EXTT12=
PLAYORDER=
